<svg width="148" height="30" viewBox="0 0 148 30" fill="none" xmlns="http://www.w3.org/2000/svg">
<rect width="30" height="30" rx="4" fill="#2CB1BC"/>
<path d="M14.2847 24.24C12.6047 24.24 11.2847 23.768 10.3247 22.824C9.36469 21.88 8.88469 20.592 8.88469 18.96H11.0447C11.0447 20.032 11.3247 20.864 11.8847 21.456C12.4607 22.032 13.2607 22.32 14.2847 22.32C15.3087 22.32 16.1007 22.032 16.6607 21.456C17.2367 20.864 17.5247 20.032 17.5247 18.96V8.448H13.3247V6.48H19.6847V18.96C19.6847 20.592 19.1967 21.88 18.2207 22.824C17.2607 23.768 15.9487 24.24 14.2847 24.24Z" fill="white"/>
<path d="M40.9175 24.24C39.2375 24.24 37.9175 23.768 36.9575 22.824C35.9975 21.88 35.5175 20.592 35.5175 18.96H37.6775C37.6775 20.032 37.9575 20.864 38.5175 21.456C39.0935 22.032 39.8935 22.32 40.9175 22.32C41.9415 22.32 42.7335 22.032 43.2935 21.456C43.8695 20.864 44.1575 20.032 44.1575 18.96V8.448H39.9575V6.48H46.3175V18.96C46.3175 20.592 45.8295 21.88 44.8535 22.824C43.8935 23.768 42.5815 24.24 40.9175 24.24ZM56.0281 24.192C54.9721 24.192 54.0601 23.992 53.2921 23.592C52.5241 23.192 51.9241 22.616 51.4921 21.864C51.0761 21.096 50.8681 20.192 50.8681 19.152V15.648C50.8681 14.592 51.0761 13.688 51.4921 12.936C51.9241 12.184 52.5241 11.608 53.2921 11.208C54.0601 10.808 54.9721 10.608 56.0281 10.608C57.0841 10.608 57.9961 10.808 58.7641 11.208C59.5321 11.608 60.1241 12.184 60.5401 12.936C60.9721 13.688 61.1881 14.584 61.1881 15.624V19.152C61.1881 20.192 60.9721 21.096 60.5401 21.864C60.1241 22.616 59.5321 23.192 58.7641 23.592C57.9961 23.992 57.0841 24.192 56.0281 24.192ZM56.0281 22.272C56.9721 22.272 57.7081 22.008 58.2361 21.48C58.7641 20.952 59.0281 20.176 59.0281 19.152V15.648C59.0281 14.624 58.7641 13.848 58.2361 13.32C57.7081 12.792 56.9721 12.528 56.0281 12.528C55.1001 12.528 54.3641 12.792 53.8201 13.32C53.2921 13.848 53.0281 14.624 53.0281 15.648V19.152C53.0281 20.176 53.2921 20.952 53.8201 21.48C54.3641 22.008 55.1001 22.272 56.0281 22.272ZM71.1868 24.24C70.0988 24.24 69.2268 23.952 68.5708 23.376C67.9148 22.784 67.5868 21.984 67.5868 20.976L68.0188 21.48H67.5868V24H65.4268V6.48H67.5868V10.32L67.5388 13.32H68.0188L67.5868 13.824C67.5868 12.832 67.9148 12.04 68.5708 11.448C69.2428 10.856 70.1148 10.56 71.1868 10.56C72.5148 10.56 73.5788 11 74.3788 11.88C75.1788 12.76 75.5788 13.96 75.5788 15.48V19.344C75.5788 20.848 75.1788 22.04 74.3788 22.92C73.5788 23.8 72.5148 24.24 71.1868 24.24ZM70.4668 22.368C71.3788 22.368 72.0988 22.096 72.6268 21.552C73.1548 21.008 73.4188 20.224 73.4188 19.2V15.6C73.4188 14.576 73.1548 13.792 72.6268 13.248C72.0988 12.704 71.3788 12.432 70.4668 12.432C69.5868 12.432 68.8828 12.712 68.3548 13.272C67.8428 13.832 67.5868 14.608 67.5868 15.6V19.2C67.5868 20.192 67.8428 20.968 68.3548 21.528C68.8828 22.088 69.5868 22.368 70.4668 22.368ZM84.9054 24.24C83.8494 24.24 82.9294 24.04 82.1454 23.64C81.3774 23.24 80.7774 22.664 80.3454 21.912C79.9294 21.144 79.7214 20.24 79.7214 19.2V11.28C79.7214 10.224 79.9294 9.32 80.3454 8.568C80.7774 7.816 81.3774 7.24 82.1454 6.84C82.9294 6.44 83.8494 6.24 84.9054 6.24C85.9614 6.24 86.8734 6.448 87.6414 6.864C88.4094 7.264 89.0014 7.84 89.4174 8.592C89.8334 9.344 90.0414 10.24 90.0414 11.28H87.8814C87.8814 10.288 87.6174 9.528 87.0894 9C86.5774 8.456 85.8494 8.184 84.9054 8.184C83.9614 8.184 83.2174 8.448 82.6734 8.976C82.1454 9.504 81.8814 10.264 81.8814 11.256V19.2C81.8814 20.192 82.1454 20.96 82.6734 21.504C83.2174 22.048 83.9614 22.32 84.9054 22.32C85.8494 22.32 86.5774 22.048 87.0894 21.504C87.6174 20.96 87.8814 20.192 87.8814 19.2V17.04H84.3294V15.072H90.0414V19.2C90.0414 20.224 89.8334 21.12 89.4174 21.888C89.0014 22.64 88.4094 23.224 87.6414 23.64C86.8734 24.04 85.9614 24.24 84.9054 24.24ZM101 24C100.232 24 99.56 23.848 98.984 23.544C98.408 23.24 97.96 22.808 97.64 22.248C97.32 21.688 97.16 21.032 97.16 20.28V8.448H92.72V6.48H99.32V20.28C99.32 20.824 99.472 21.256 99.776 21.576C100.08 21.88 100.488 22.032 101 22.032H105.2V24H101ZM112.439 24.24C111.047 24.24 109.951 23.888 109.151 23.184C108.351 22.464 107.951 21.496 107.951 20.28C107.951 19.048 108.351 18.08 109.151 17.376C109.951 16.672 111.031 16.32 112.391 16.32H116.471V15C116.471 14.184 116.223 13.56 115.727 13.128C115.247 12.68 114.559 12.456 113.663 12.456C112.879 12.456 112.223 12.624 111.695 12.96C111.167 13.28 110.863 13.72 110.783 14.28H108.623C108.767 13.144 109.303 12.24 110.231 11.568C111.159 10.896 112.319 10.56 113.711 10.56C115.231 10.56 116.431 10.952 117.311 11.736C118.191 12.52 118.631 13.584 118.631 14.928V24H116.519V21.48H116.159L116.519 21.12C116.519 22.08 116.143 22.84 115.391 23.4C114.655 23.96 113.671 24.24 112.439 24.24ZM112.967 22.536C113.991 22.536 114.831 22.28 115.487 21.768C116.143 21.256 116.471 20.6 116.471 19.8V17.928H112.439C111.719 17.928 111.151 18.128 110.735 18.528C110.319 18.928 110.111 19.472 110.111 20.16C110.111 20.896 110.359 21.48 110.855 21.912C111.367 22.328 112.071 22.536 112.967 22.536ZM127.573 24.192C126.677 24.192 125.893 24.056 125.221 23.784C124.565 23.496 124.037 23.096 123.637 22.584C123.253 22.072 123.021 21.464 122.941 20.76H125.101C125.197 21.224 125.453 21.592 125.869 21.864C126.301 22.136 126.869 22.272 127.573 22.272H128.581C129.429 22.272 130.061 22.104 130.477 21.768C130.893 21.416 131.101 20.952 131.101 20.376C131.101 19.816 130.909 19.376 130.525 19.056C130.157 18.72 129.605 18.496 128.869 18.384L127.093 18.096C125.797 17.872 124.829 17.472 124.189 16.896C123.565 16.304 123.253 15.448 123.253 14.328C123.253 13.144 123.629 12.232 124.381 11.592C125.133 10.936 126.261 10.608 127.765 10.608H128.677C129.941 10.608 130.957 10.904 131.725 11.496C132.493 12.088 132.957 12.888 133.117 13.896H130.957C130.861 13.48 130.621 13.152 130.237 12.912C129.853 12.656 129.333 12.528 128.677 12.528H127.765C126.949 12.528 126.349 12.68 125.965 12.984C125.597 13.288 125.413 13.744 125.413 14.352C125.413 14.896 125.573 15.296 125.893 15.552C126.213 15.808 126.717 15.992 127.405 16.104L129.181 16.392C130.605 16.616 131.637 17.032 132.277 17.64C132.933 18.248 133.261 19.128 133.261 20.28C133.261 21.496 132.869 22.456 132.085 23.16C131.317 23.848 130.149 24.192 128.581 24.192H127.573ZM141.964 24.192C141.068 24.192 140.284 24.056 139.612 23.784C138.956 23.496 138.428 23.096 138.028 22.584C137.644 22.072 137.412 21.464 137.332 20.76H139.492C139.588 21.224 139.844 21.592 140.26 21.864C140.692 22.136 141.26 22.272 141.964 22.272H142.972C143.82 22.272 144.452 22.104 144.868 21.768C145.284 21.416 145.492 20.952 145.492 20.376C145.492 19.816 145.3 19.376 144.916 19.056C144.548 18.72 143.996 18.496 143.26 18.384L141.484 18.096C140.188 17.872 139.22 17.472 138.58 16.896C137.956 16.304 137.644 15.448 137.644 14.328C137.644 13.144 138.02 12.232 138.772 11.592C139.524 10.936 140.652 10.608 142.156 10.608H143.068C144.332 10.608 145.348 10.904 146.116 11.496C146.884 12.088 147.348 12.888 147.508 13.896H145.348C145.252 13.48 145.012 13.152 144.628 12.912C144.244 12.656 143.724 12.528 143.068 12.528H142.156C141.34 12.528 140.74 12.68 140.356 12.984C139.988 13.288 139.804 13.744 139.804 14.352C139.804 14.896 139.964 15.296 140.284 15.552C140.604 15.808 141.108 15.992 141.796 16.104L143.572 16.392C144.996 16.616 146.028 17.032 146.668 17.64C147.324 18.248 147.652 19.128 147.652 20.28C147.652 21.496 147.26 22.456 146.476 23.16C145.708 23.848 144.54 24.192 142.972 24.192H141.964Z" fill="#2CB1BC"/>
</svg>
